<svg width="24" height="24" viewBox="0 0 24 24" fill="none" xmlns="http://www.w3.org/2000/svg">
<mask id="path-1-inside-1_32_149" fill="white">
<path d="M20 22V19C20 17.9391 19.5786 16.9217 18.8284 16.1716C18.0783 15.4214 17.0609 15 16 15H8C6.93913 15 5.92172 15.4214 5.17157 16.1716C4.42143 16.9217 4 17.9391 4 19V22"/>
</mask>
<path d="M20 22V19C20 17.9391 19.5786 16.9217 18.8284 16.1716C18.0783 15.4214 17.0609 15 16 15H8C6.93913 15 5.92172 15.4214 5.17157 16.1716C4.42143 16.9217 4 17.9391 4 19V22" fill="#245AF6"/>
<path d="M18.8284 16.1716L18.1212 16.8787L18.1213 16.8788L18.8284 16.1716ZM5.17157 16.1716L5.87866 16.8787L5.8787 16.8787L5.17157 16.1716ZM20 22H21V19H20H19V22H20ZM20 19H21C21 17.6739 20.4733 16.4021 19.5355 15.4644L18.8284 16.1716L18.1213 16.8788C18.6839 17.4413 19 18.2043 19 19H20ZM18.8284 16.1716L19.5356 15.4645C18.5979 14.5267 17.3261 14 16 14V15V16C16.7957 16 17.5587 16.3161 18.1212 16.8787L18.8284 16.1716ZM16 15V14H8V15V16H16V15ZM8 15V14C6.67393 14 5.40214 14.5267 4.46444 15.4645L5.17157 16.1716L5.8787 16.8787C6.4413 16.3161 7.20433 16 8 16V15ZM5.17157 16.1716L4.46448 15.4645C3.52678 16.4021 3 17.6739 3 19H4H5C5 18.2043 5.31608 17.4413 5.87866 16.8787L5.17157 16.1716ZM4 19H3V22H4H5V19H4Z" fill="#245AF6" mask="url(#path-1-inside-1_32_149)"/>
<path d="M20 22V19C20 17.9391 19.5786 16.9217 18.8284 16.1716C18.0783 15.4214 17.0609 15 16 15H8C6.93913 15 5.92172 15.4214 5.17157 16.1716C4.42143 16.9217 4 17.9391 4 19V22" fill="#245AF6"/>
<path d="M20 22V19C20 17.9391 19.5786 16.9217 18.8284 16.1716C18.0783 15.4214 17.0609 15 16 15H8C6.93913 15 5.92172 15.4214 5.17157 16.1716C4.42143 16.9217 4 17.9391 4 19V22" stroke="#245AF6" stroke-width="2" stroke-linecap="round" stroke-linejoin="round"/>
<path d="M4 22H20" stroke="#245AF6" stroke-width="2" stroke-linecap="round"/>
<path d="M12 11C14.2091 11 16 9.20914 16 7C16 4.79086 14.2091 3 12 3C9.79086 3 8 4.79086 8 7C8 9.20914 9.79086 11 12 11Z" fill="#245AF6" stroke="#245AF6" stroke-width="2" stroke-linecap="round" stroke-linejoin="round"/>
</svg>
