<svg width="20" height="20" viewBox="0 0 20 20" fill="none" xmlns="http://www.w3.org/2000/svg">
<g filter="url(#filter0_d_11786_4288)">
<path d="M14.8149 13.3333C15.3774 13.3333 15.8334 12.8773 15.8334 12.3148V5.18518C15.8334 4.62266 15.3774 4.16666 14.8149 4.16666H7.68527C7.12275 4.16666 6.66675 4.62266 6.66675 5.18518" stroke="white" stroke-linecap="round" stroke-linejoin="round"/>
</g>
<g filter="url(#filter1_d_11786_4288)">
<path d="M12.3149 6.66666H5.18527C4.62275 6.66666 4.16675 7.12266 4.16675 7.68518V14.8148C4.16675 15.3773 4.62275 15.8333 5.18527 15.8333H12.3149C12.8774 15.8333 13.3334 15.3773 13.3334 14.8148V7.68518C13.3334 7.12266 12.8774 6.66666 12.3149 6.66666Z" fill="white"/>
<path d="M12.3149 6.66666H5.18527C4.62275 6.66666 4.16675 7.12266 4.16675 7.68518V14.8148C4.16675 15.3773 4.62275 15.8333 5.18527 15.8333H12.3149C12.8774 15.8333 13.3334 15.3773 13.3334 14.8148V7.68518C13.3334 7.12266 12.8774 6.66666 12.3149 6.66666Z" stroke="white" stroke-linecap="round" stroke-linejoin="round"/>
</g>
<defs>
<filter id="filter0_d_11786_4288" x="4.16675" y="1.66666" width="14.1667" height="14.1667" filterUnits="userSpaceOnUse" color-interpolation-filters="sRGB">
<feFlood flood-opacity="0" result="BackgroundImageFix"/>
<feColorMatrix in="SourceAlpha" type="matrix" values="0 0 0 0 0 0 0 0 0 0 0 0 0 0 0 0 0 0 127 0" result="hardAlpha"/>
<feOffset/>
<feGaussianBlur stdDeviation="1"/>
<feComposite in2="hardAlpha" operator="out"/>
<feColorMatrix type="matrix" values="0 0 0 0 0 0 0 0 0 0 0 0 0 0 0 0 0 0 0.5 0"/>
<feBlend mode="normal" in2="BackgroundImageFix" result="effect1_dropShadow_11786_4288"/>
<feBlend mode="normal" in="SourceGraphic" in2="effect1_dropShadow_11786_4288" result="shape"/>
</filter>
<filter id="filter1_d_11786_4288" x="1.66675" y="4.16666" width="14.1667" height="14.1667" filterUnits="userSpaceOnUse" color-interpolation-filters="sRGB">
<feFlood flood-opacity="0" result="BackgroundImageFix"/>
<feColorMatrix in="SourceAlpha" type="matrix" values="0 0 0 0 0 0 0 0 0 0 0 0 0 0 0 0 0 0 127 0" result="hardAlpha"/>
<feOffset/>
<feGaussianBlur stdDeviation="1"/>
<feComposite in2="hardAlpha" operator="out"/>
<feColorMatrix type="matrix" values="0 0 0 0 0 0 0 0 0 0 0 0 0 0 0 0 0 0 0.5 0"/>
<feBlend mode="normal" in2="BackgroundImageFix" result="effect1_dropShadow_11786_4288"/>
<feBlend mode="normal" in="SourceGraphic" in2="effect1_dropShadow_11786_4288" result="shape"/>
</filter>
</defs>
</svg>
