<svg width="15" height="15" viewBox="0 0 15 15" fill="none" xmlns="http://www.w3.org/2000/svg">
<path d="M7.70837 10C8.48962 10 9.15369 9.72656 9.70056 9.17969C10.2474 8.63281 10.5209 7.96875 10.5209 7.1875C10.5209 6.40625 10.2474 5.74219 9.70056 5.19531C9.15369 4.64844 8.48962 4.375 7.70837 4.375C6.92712 4.375 6.26306 4.64844 5.71619 5.19531C5.16931 5.74219 4.89587 6.40625 4.89587 7.1875C4.89587 7.96875 5.16931 8.63281 5.71619 9.17969C6.26306 9.72656 6.92712 10 7.70837 10ZM7.70837 8.875C7.23962 8.875 6.84119 8.71094 6.51306 8.38281C6.18494 8.05469 6.02087 7.65625 6.02087 7.1875C6.02087 6.71875 6.18494 6.32031 6.51306 5.99219C6.84119 5.66406 7.23962 5.5 7.70837 5.5C8.17712 5.5 8.57556 5.66406 8.90369 5.99219C9.23181 6.32031 9.39587 6.71875 9.39587 7.1875C9.39587 7.65625 9.23181 8.05469 8.90369 8.38281C8.57556 8.71094 8.17712 8.875 7.70837 8.875ZM7.70837 11.875C6.18754 11.875 4.80212 11.4505 3.55212 10.6016C2.30212 9.7526 1.39587 8.61458 0.833374 7.1875C1.39587 5.76042 2.30212 4.6224 3.55212 3.77344C4.80212 2.92448 6.18754 2.5 7.70837 2.5C9.22921 2.5 10.6146 2.92448 11.8646 3.77344C13.1146 4.6224 14.0209 5.76042 14.5834 7.1875C14.0209 8.61458 13.1146 9.7526 11.8646 10.6016C10.6146 11.4505 9.22921 11.875 7.70837 11.875ZM7.70837 10.625C8.88546 10.625 9.96619 10.3151 10.9506 9.69531C11.9349 9.07552 12.6875 8.23958 13.2084 7.1875C12.6875 6.13542 11.9349 5.29948 10.9506 4.67969C9.96619 4.0599 8.88546 3.75 7.70837 3.75C6.53129 3.75 5.45056 4.0599 4.46619 4.67969C3.48181 5.29948 2.72921 6.13542 2.20837 7.1875C2.72921 8.23958 3.48181 9.07552 4.46619 9.69531C5.45056 10.3151 6.53129 10.625 7.70837 10.625Z" fill="#DBDBDB"/>
</svg>
