<svg width="10" height="10" viewBox="0 0 10 10" fill="none" xmlns="http://www.w3.org/2000/svg">
<path d="M4.72223 1.56164e-05C5.45551 -0.00187327 6.17884 0.169404 6.83334 0.500015C7.61762 0.892014 8.27734 1.49457 8.7385 2.24035C9.19967 2.98607 9.44411 3.84545 9.44445 4.72223C9.44633 5.45551 9.27506 6.17883 8.94445 6.83334L10 10L6.83334 8.94445C6.17884 9.27504 5.45551 9.44636 4.72223 9.44445C3.84543 9.44411 2.98604 9.19966 2.24032 8.73849C1.4946 8.27732 0.891998 7.61764 0.500015 6.83334C0.169421 6.17883 -0.00189529 5.45551 1.58154e-05 4.72223V4.44445C0.0638991 3.28651 0.552659 2.19279 1.37271 1.37274C2.19277 0.552681 3.28648 0.0639044 4.44445 1.56164e-05H4.72223Z" fill="#DBDBDB"/>
</svg>
