<svg width="18" height="17" viewBox="0 0 18 17" fill="none" xmlns="http://www.w3.org/2000/svg">
<path d="M15.8518 2.03592C15.452 1.62825 14.9773 1.30485 14.4548 1.08421C13.9323 0.863565 13.3722 0.75 12.8066 0.75C12.241 0.75 11.681 0.863565 11.1585 1.08421C10.636 1.30485 10.1612 1.62825 9.76141 2.03592L8.93161 2.8816L8.10181 2.03592C7.29416 1.21283 6.19877 0.750427 5.05659 0.750427C3.91441 0.750427 2.81901 1.21283 2.01137 2.03592C1.20373 2.85901 0.75 3.97536 0.75 5.13939C0.75 6.30341 1.20373 7.41976 2.01137 8.24285L2.84117 9.08853L8.93161 15.2955L15.022 9.08853L15.8518 8.24285C16.2519 7.83537 16.5692 7.35156 16.7857 6.81905C17.0022 6.28655 17.1136 5.71579 17.1136 5.13939C17.1136 4.56298 17.0022 3.99223 16.7857 3.45972C16.5692 2.92722 16.2519 2.44341 15.8518 2.03592Z" stroke="#767676" stroke-width="1.5" stroke-linecap="round" stroke-linejoin="round"/>
</svg>
