<svg width="17" height="15" viewBox="0 0 17 15" fill="none" xmlns="http://www.w3.org/2000/svg">
<path d="M15.1018 1.28592C14.702 0.878249 14.2273 0.554851 13.7048 0.334208C13.1823 0.113565 12.6222 0 12.0566 0C11.491 0 10.931 0.113565 10.4085 0.334208C9.88598 0.554851 9.41125 0.878249 9.01141 1.28592L8.18161 2.1316L7.35181 1.28592C6.54416 0.462834 5.44877 0.000426636 4.30659 0.000426645C3.16441 0.000426654 2.06901 0.462834 1.26137 1.28592C0.453729 2.10901 8.50989e-09 3.22536 0 4.38939C-8.50989e-09 5.55341 0.453729 6.66976 1.26137 7.49285L2.09117 8.33853L8.18161 14.5455L14.272 8.33853L15.1018 7.49285C15.5019 7.08537 15.8192 6.60156 16.0357 6.06905C16.2522 5.53655 16.3636 4.96579 16.3636 4.38939C16.3636 3.81298 16.2522 3.24223 16.0357 2.70972C15.8192 2.17722 15.5019 1.69341 15.1018 1.28592Z" fill="#EB5757"/>
</svg>
