<svg width="17" height="17" viewBox="0 0 17 17" fill="none" xmlns="http://www.w3.org/2000/svg">
<path d="M15.75 7.83336C15.7529 8.93325 15.4959 10.0183 15 11C14.412 12.1765 13.5081 13.166 12.3895 13.8578C11.271 14.5495 9.98187 14.9162 8.66667 14.9167C7.56678 14.9196 6.48176 14.6626 5.5 14.1667L0.75 15.75L2.33333 11C1.83744 10.0183 1.58047 8.93325 1.58333 7.83336C1.58384 6.51815 1.95051 5.22907 2.64227 4.11048C3.33402 2.9919 4.32355 2.088 5.5 1.50002C6.48176 1.00413 7.56678 0.747156 8.66667 0.750024H9.08333C10.8203 0.84585 12.4609 1.57899 13.6909 2.80907C14.921 4.03915 15.6542 5.67973 15.75 7.41669V7.83336Z" stroke="#767676" stroke-width="1.5" stroke-linecap="round" stroke-linejoin="round"/>
</svg>
